<?xml version="1.0" encoding="utf-8"?>
<!-- Generator: Adobe Illustrator 18.1.1, SVG Export Plug-In . SVG Version: 6.00 Build 0)  -->
<svg version="1.1" id="Layer_1" xmlns="http://www.w3.org/2000/svg" xmlns:xlink="http://www.w3.org/1999/xlink" x="0px" y="0px"
	 viewBox="0 0 400 400" enable-background="new 0 0 400 400" xml:space="preserve">
<path fill="#131414" d="M225.8,297.7c-2.4-0.3-4.8-0.7-7.2-1c-2-2.2-3.5-1.2-4.8,0.7c-0.8-0.3-1.6-0.7-2.4-1
	c-0.9-0.9-1.8-1.9-2.6-2.8c-0.7,0-1.3,0-2,0c-0.4,0.2-0.8,0.4-1.1,0.6c-1.1,0.3-2.2,0.6-3.4,0.8c1.1,2.1,2.2,4.1,3.4,6.4
	c-7.7,0-14.5,0-21.6,0c0.6,0.7,1.2,1.3,1.7,1.9c0.4,0.2,0.8,0.5,1.2,0.7c1.3,0.9,2.5,1.7,3.8,2.6c0.4,0.1,0.8,0.3,1.2,0.4
	c0.3-0.3,0.5-0.3,0.8,0c-0.1,1.3-0.1,2.6-0.2,3.9c-0.6,0.4-1.2,0.8-1.8,1.2c0.5,0.7,1,1.4,1.4,2.1c0.9,1.1,1.9,2.1,3.1,3.5
	c-6.2-0.3-12.1-5-13.6-9.9c-0.5-1.6-2-2.9-3-4.4c-0.3-0.1-0.5-0.1-0.8-0.2c-0.6,0.2-1.3,0.4-1.9,0.7c-1.7,0.6-3.5,1.1-5.2,1.7
	c-0.6,0.2-1.3,0.4-1.9,0.5c-0.7,0.2-1.4,0.3-2.1,0.5c-2,0-4,0-6,0c-0.3-0.8-0.6-1.6-1-2.4c0.7,0.1,1.3,0.2,2,0.3c1,0,2,0,3,0
	c1.5-0.5,3.1-1.1,4.6-1.6c-3.2-1.5-6.3-2.1-9.3-2.3c-0.9-0.1-1.9,0.9-2.9,1.3c0.5,0.7,1.1,1.4,1.6,2c-0.2,0.9-0.4,1.9-0.6,2.8
	c0.2,0.4,0.4,0.8,0.6,1.2c0.1,1.1,0.2,2.2,0.3,3.3c-0.8-0.1-1.5-0.2-2.3-0.3c-1.3-3.4-2.3-7.1-4.2-10.1c-0.7-1.2-3.7-0.9-5.7-1.3
	c0.1-1.4,0.3-2.8,0.6-6c-2.3,1.7-3.5,2.6-4.7,3.5c-1.5,1.2-3,2.2-4.4,3.5c-1.2,1.2-1.9,3.5-3.1,3.7c-4.8,1-5.2,3.7-2.7,8.2
	c-0.6,0-1.1-0.1-1.7-0.1c-1.2-1.5-2.5-3-3.8-4.5c-2.7,5.7,4.2,11.2,15.6,11.6c-3.5,4.3-7.8,3.7-11.8,4.1c-0.3-0.2-0.5-0.5-0.8-0.7
	c-0.7-0.9-1.4-1.7-2.1-2.6c-1.5-1.2-2.9-2.3-4.4-3.5c-0.3-0.6-0.5-1.2-0.8-1.8c0.2-1.1,0.4-2.2,0.6-3.3c-0.4,0-0.8-0.1-1.1-0.1
	c-0.2,0.9-0.4,1.8-0.5,2.6c-1.5,0.7-3,1.4-4.3,2.2c-2.1,1.3-4.1,2.7-6.7,3.4c6.4-4.1,5.4-11,7.7-18.1c-9.8,7.9-19.5,9.1-30.1,5.9
	c4.9-1.3,9.5-2.5,14.1-3.7c0.4-0.2,0.8-0.4,1.3-0.6c0.4-1.2,1-2.4,1.2-3.6c0.5-2.6,1.5-2.3,2.8-0.6c0.2,0.3,0.4,0.7,0.6,1
	c-0.5,1-1,2.1-1.4,3.1c-0.7,1-1.4,2-2.2,2.9c-0.1,0.1-0.3,0.1-0.4,0.2c-0.1,0.1-0.1,0.2-0.1,0.3c0.1-0.1,0.3-0.3,0.4-0.4
	c1-0.6,2-1.2,3-1.8c1-0.5,2.3-0.8,2.8-1.5c2.4-3.7,4.8-7.5,6.9-11.4c0.5-1-0.4-2.7-0.7-4.1c0-1.5,0.1-3,0.1-4.6
	c0.5-0.6,1-1.2,2.1-2.5c-3.4-1.4-6.4-2.6-10.3-4.2c0.4,2.3,0.5,3.3,0.7,4.3c-1.2-0.7-2.4-1.5-4.5-2.8c0.5,2.7,0.8,4.3,1.2,7
	c-2.3-1-4-1.7-5.7-2.5c-3,2.5-2.7,5,0.5,7.4c1.2,0.9,2.7,1.2,4.1,1.8c-0.3,0.6-0.7,1.2-1,1.8c-0.7-0.1-1.3-0.3-2-0.4
	c-0.3-0.1-0.6-0.3-0.9-0.4c-1.1-0.3-2.2-0.6-3.2-1c-6.7-6.5-7.7-13.8-3-22.5c-3.9,2.3-6.5,5.4-9.7,7.6c-5.8,3.9-7.4,9.1-6,15.6
	c-0.5,0.8-0.9,1.6-1.4,2.4c-2.7-7.9-0.6-14.7,5.3-21C70,275.2,59,271.9,48.8,265c0.3-1.3,0.6-2.5,1-3.8c0.3-0.3,0.6-0.6,0.9-0.9
	c0.1,0.1,0.1,0.2,0.2,0.3c0.1,0.1,0.2,0,0.3,0.1c-0.1-0.1-0.3-0.3-0.4-0.4c-0.9-0.3-1.9-0.7-2.8-1c-0.4-1.3-0.8-2.6-1.2-3.9
	c-0.3-0.7-0.5-1.4-0.8-2c0.2-2.9,0.4-5.7,0.5-8.6c1-0.4,1.9-0.8,2.9-1.1c0.2,0.6,0.4,1.2,0.7,1.8c0.6-1,1.1-2,1.7-3l0,0
	c4-0.8,8.3-3.5,11.7,2.2c-0.1-5.6-3-6.8-9.6-4.9c-3.5-4.7,3.2-3.8,3.7-6.3c-3.5-3-3.7-2.9-7.8,1.1c-2.8-0.6-4.4,0.7-5.9,3.1
	c-1.2,1.9-3.4,3.4-5.4,4.7c-2.9,1.8-6.1,3.3-9.5,5.2c-2.9-2.7-5.4-12.5-2.8-16.7c1.1-1.8,4.2-2.4,6.4-3.5c0.4-0.1,0.8-0.2,1.2-0.3
	c2-0.1,4-0.3,6-0.4c3,0.3,6,0.6,9,0.9c1.3,0.2,2.6,0.3,4,0.5c0.7,0.2,1.3,0.4,2,0.5c1,0.2,2,0.5,3,0.7c1,0.5,2,1,3,1.5
	c1.9,1,3.8,1.9,6.3,3.2c0-3.3,0-5.4,0-7.6c-1.2-0.2-2.3-0.3-3.3-0.5c-2.5-2-2.5-8.5-8.3-4.4c-0.9-1-1.8-2-2.6-3
	c-2.4-4.4-5.9-1-9-1.2c0-0.6-0.1-1.2-0.1-1.9c0,0,0,0,0,0c0.7-0.3,1.4-0.5,2.1-0.8c0.3-0.2,0.5-0.2,0.8-0.1c0.4-0.1,0.7-0.3,1.1-0.4
	c1.3-0.1,2.7-0.1,4-0.2c0.5,0.2,1,0.5,1.6,0.7c1-0.3,2-0.7,2.9-1c0.2-0.3,0.3-0.7,0.5-1c0.6-1.5,1.3-2.9,1.6-3.7
	c-6.8,0.5-13.6,1.6-20.4,1.3c-9.9-0.5-17.6-5.5-23.3-13.6c-0.6-0.8-1.2-1.5-1.9-2.2c-4.2-4.4-4.2-7-0.6-12.1
	c1.1-1.6,1.6-3.6,2.3-5.4c2.4-5.9,3.1-6.2,9.2-4.9c1.4,0.3,3-0.4,4.4-0.3c1.2,0.1,2.5,0.6,5.2,1.4c-5.8,3.3-4.6,9.9-10,12.9
	c-3.5,2-2.3,9.7,1.4,15c0.7-2.8,1.4-5.5,2.4-9.7c5.5,8.1,8.9,16.4,19.2,16.5c4.2,0,7.4-0.9,9.9-4.3c-6.8-6.3-12.2-6.8-17.5-1.5
	c0-1.8-0.7-4.3,0.2-5.1c1.8-1.5,4.3-2.7,6.7-2.9c1.9-0.1,4,1.3,5.9,2.4c1.9,1,3.6,2.4,5.4,3.6c2.3-4.9,2.2-5.2-2.8-6.1
	c0.3-1.7,0.6-3.5,0.8-5.2c0.3-0.4,0.5-0.7,0.8-1.1c0,0,0.1-0.1,0.1-0.1c1.2-2.4,1.8-5.6,3.7-6.9c3.5-2.3,3.2-4.8,1.7-7.4
	c-1.7-3.1-2.2-8.1-7-7.7c-3.1,0.3-6.9,1.7-8.9,3.9c-3.6,3.8-2.7,8.2,1.4,12.8c-2.5,3.2-3.6,0.3-4.7-1.3c-3.4-5-2.6-13.1,2-18.5
	c2.3-2.7,5.3-5,8.2-7.7c-3.2-2.2-6.6-4.6-9.9-7.1c-0.9-0.7-2.4-2.1,0.5-2c0.2-1,0.3-2.1,0.5-3.1c-1.1-1.4-2.2-2.7-3.3-4.1
	c-2.1-0.9-4.2-1.9-6.2-2.8c1-0.3,2.1-0.5,3.1-0.8c1,0,2,0,3,0c0.6,0.1,1.2,0.1,1.8,0.2c0.5,0.1,0.9,0.2,1.4,0.4
	c1.1,0.2,2.3,0.4,3.9,0.7c-0.9-6,0.3-11.3,5.8-14.1c1.6-0.8,4.2-0.1,6.3,0.1c0.2,0,0.7,1.9,0.3,2.5c-0.3,0.6-2,1.3-2.3,1
	c-4.6-4.3-5.1,0.7-6.7,2.9c-0.6,0.9-0.9,2.1-1.4,3.4c4.9-0.3,5.8,3,6.5,6.4c0.6,3,1.2,6,1.9,9c0.1,0.3,0.8,0.5,1.3,0.7
	c0.8,0.6,1.7,1.2,2.7,2c-1.7,0.4-3.1,0.7-4.5,1c0.1,0.6,0.2,1.1,0.3,1.7c4.3-0.5,8.5-1,12.9-1.5c-3.4-1.8-6.2-3.2-9-4.7
	c-0.6-2.4-1.1-4.8-1.8-7.7c5.5,1.8,10.1-0.3,10.6-4.1c0-0.6,0-1.2,0-1.8c2-2,6-2.4,5.3-6.6c-0.1-0.3,1.3-0.7,1.7-1.3
	c1.2-1.7,3.2-3.5,3.1-5.2c-0.1-2.1-1.9-4.1-3-6.1c-0.1-1.2-0.2-2.5-0.4-3.7c-1.2-1.7-2.5-3.3-3.7-5c-0.1-0.3-0.3-0.4-0.7-0.4
	c0.2-2.7,0.4-5.3,0.6-8c0.4-0.1,0.7-0.2,1.1-0.3c0.7-0.2,1.4-0.4,2.1-0.6c1.3,0,2.6-0.1,3.9-0.1c0.3-0.3,0.7-0.6,1-0.9
	c-0.2-0.7-0.3-1.4-0.5-2c-0.2-0.3-0.3-0.6-0.5-0.9c-0.2-0.4-0.4-0.7-0.6-1.1c-0.2-0.2-0.3-0.5-0.5-0.7c0,0-0.1-0.2-0.1-0.2
	c-0.3-0.3-0.6-0.7-0.8-1c-5.4-5.5-11.9-5.5-19-4c1.5,1,2.7,1.7,3.8,2.7c0.3,0.3,0.4,1.3,0.1,1.8c-0.3,0.4-1.3,1-1.6,0.8
	c-5.2-4.1-10.6-0.9-17.1,0c8-6.4,15.8-9.7,25-9.4c8.1,0.3,16.3-0.1,23.4,5c-3-4.2-2.1-8-0.3-11.9c0.3-0.3,0.5-0.5,0.8-0.8
	c0.2-0.3,0.4-0.4,0.7-0.4c0.4-0.2,0.8-0.4,1.3-0.6c0.9-0.1,1.9-0.2,2.8-0.4c0.4-0.1,0.8-0.2,1.2-0.2c1.3-0.2,2.7-0.4,4-0.6
	c2.3,0,4.6,0.1,7,0.1c0.7,0.1,1.3,0.1,2,0.2c2.1,0.4,4.3,0.8,6.4,1.3c1,0.2,1.9,0.4,2.9,0.5c1.8,0.2,3.6,0.2,5.4,0.4
	c-0.1-2-0.2-4-0.3-6.1c0.3-0.3,0.7-0.5,1-0.8c1.8,1.4,3.6,2.8,5.6,4.3c-0.2-1.9-0.1-3.6-0.6-5.1c-1.2-3.5-0.8-9-7.4-7.2
	c-0.3,0.1-1.1-1.9-1.2-2c-2-1.2-3.5-2.2-5.1-3c-1.1-0.6-2.6-1.6-3.2-1.2c-1,0.6-1.6,2.1-2.2,3.4c-0.7,1.4-1.1,2.8-1.5,3.7
	c0.8,2.3,1.4,4.4,2.1,6.5c-0.6,0.7-1.3,1.4-1.9,2.1c-3.8-6.6-3.7-11.6,0.4-16.4c2.9-3.4,7-4.2,10.8-2.4c3.8,1.7,7.1,4.5,10.2,6.5
	c1.3-1.3,3-3.1,4.8-4.9c0.2,1,0.9,2.4,0.5,3c-3.9,5.6-3.6,10.6,1.5,16.8c1.2-7.3,1.9-14-0.3-20.8c-0.1-0.7-0.3-1.3-0.4-2
	c0.1-0.1,0.2-0.3,0.2-0.4c-0.1-0.3-0.3-0.5-0.5-0.7c-0.2-0.6-0.5-1.2-0.7-1.8c-0.1-0.3-0.3-0.7-0.4-1c-0.1-0.3-0.2-0.6-0.3-1
	c-0.2-0.4-0.4-0.8-0.7-1.2c-1.9-1.8-3.7-3.7-6.7-6.7c5.2,1.1,10.4,0.6,13,3c3.1,2.9,4,8.1,5.9,12.5c3.1-0.8,7-1.7,10.9-2.7
	c0.2,0.5,0.4,0.9,0.6,1.4c-3.2,2.8-5.2,5.7-2.2,10.1c7.2-5.1,15.3-6.5,24.7-4.8c-0.4-2.5-0.9-4.8-1.3-7.1c0.2-0.2,0.4-0.4,0.6-0.5
	c0.9,1.2,2,2.4,2.7,3.7c0.9,1.8,0.8,4.7,2.2,5.5c3.7,2.3,8,3.7,11.9,5.6c1.9,0.9,3.6,1.9,5.4,2.9c-0.2,0.4-0.4,0.9-0.5,1.3
	c1.3-0.3,2.6-0.6,4.3-1c-2.7,4.3-2.7,4.3-13.9-1c0.9,3.2,1.2,6.1,2.5,8.6c1.2,2.3,3.4,3.8,6.1,1.5c1.4-1.2,2.9-2.3,4.3-3.4
	c7.3-5.5,10.5-5.7,17.6-2.1c1.2,3.8,2.1,6.4,3,9.4c-2.6,0-4.8,0-7.1,0c-2.3,0.3-4.6,0.6-7.1,1c3.6,4.5,7.6,5.3,12,2.9
	c3.5-0.9,6.9-1.8,10.4-2.6c-3.8,4.8-3.8,4.8,1.3,7.7c1,0.6,1.5,2.1,2.3,3.2c0.3,0.2,0.7,0.5,1,0.7c0,0,0,0,0,0
	c0.7,1.6,1.5,3.3,2.2,4.9c0.6,0.3,1.2,0.5,1.8,0.8c1.1,1.1,2.2,2.3,3.3,3.4c13,10.8,23.5,23.5,29.8,39.4
	c-15.7-21.9-36.4-35.4-63.2-39.2c-27-3.8-50.6,3.9-71.2,21.3c-34.8,29.5-39.9,83.5-12.4,120.9c24.3,33.1,87.2,55.7,136.1,8.5
	c-0.3,6.2-19.9,24.8-33.6,31.8c-0.3,0.2-0.6,0.4-0.9,0.6c0,0.2-0.1,0.3-0.4,0.3c-1.5,0.8-2.9,1.6-4.4,2.4c-1.5,0.7-3.3,1.1-4.5,2.1
	c-1.3,1.2-3.1,3.1-2.9,4.3c0.3,1.3,2.5,2.6,4.2,3.2c1.3,0.5,2.9,0.1,5.6,0.1C228,296.5,226.9,297.1,225.8,297.7z M79.7,111.6
	c0.3,0.2,0.6,0.4,0.9,0.7c0.8,0.8,1.6,1.5,2.7,2.4c1.6-4.4,4.4-9,0.5-12.8c-2.2-2.1-6.1-2.4-8.7-3.4c1.4,3.7,2.6,6.7,3.6,9.7
	C79.1,109.3,79.4,110.5,79.7,111.6z M59.4,251.8c-0.2,2.3-0.1,4.6-0.7,6.7c-1.6,5.5,2.3,10.5,7.9,10.1c-6.7-9.2-6-13.3,3.2-18.3
	c-0.7-2.4-1.4-4.7-1.8-5.9C64.9,247,62,249.5,59.4,251.8z M64.1,261c1.8-0.4,3-0.6,4.5-0.9c-2.6,7.1,0.4,10.1,7.8,8.9
	c-1.4-4.6-2.8-9.2-4.2-13.8c-2.6,0.5-4.7,1-7.2,1.5C64.7,257.8,64.4,259.2,64.1,261z M157.4,68.4c0.2,0.4,0.3,0.8,0.5,1.1
	c1.7-0.2,4,0.2,5.1-0.7c3.6-3.2,6.8-6.8,11.1-11.3c-3.6,0.2-6.4,0.1-9.1,0.5C158.8,58.9,161,65.6,157.4,68.4z M176.9,73.5
	c4.6-1.2,8.7-2.2,12.6-3.2c-1.1-3.9-2.1-7.4-3-10.7C183.1,64.5,180,69,176.9,73.5z M115.5,78.7c-0.3-0.5-0.7-1-1-1.4
	c-1.8,1.4-3.5,2.7-5.3,4.1c-1.9,1.5-3.5,3.3-5.5,4.5c-3.3,2-3.9,3.8-1.4,7.7C106.8,88.6,111.2,83.6,115.5,78.7z M74.2,250.9
	c-0.5,0.4-0.9,0.9-1.4,1.3c2.7,4,5.4,8,8,11.9c2.1-1.8,3.2-2.7,5-4.2C82,256.9,78.1,253.9,74.2,250.9z M177.5,63.7
	c-1.7-0.6-4.1-1.8-4.4-1.4c-3.2,3.9-6,8.1-9,12.2c0.4,0.3,0.8,0.5,1.1,0.8c3.7-3.1,7.4-6.3,11-9.4C176.6,65.5,176.8,65,177.5,63.7z
	 M119.1,87.2c0.4-0.5,0.8-1,1.1-1.4c-1-1.5-1.8-3.2-3.1-4.3c-0.4-0.4-2.7,0.4-3.1,1.2c-0.7,1.3-0.6,3-0.9,4.6
	C115.2,87.2,117.2,87.2,119.1,87.2z M49.5,248.5c-0.1-0.2-0.2-0.5-0.3-0.7c-0.1,0.1-0.3,0.2-0.3,0.3c0.1,0.3,0.2,0.5,0.3,0.7
	C49.3,248.7,49.4,248.6,49.5,248.5z"/>
<path fill="#212121" d="M148,145.9c8.5-1.4,8.6-1.4,11.9,6.6c3.1,7.6,6.3,15.2,9.7,23.2c0.7-0.8,1.4-1.5,1.7-2.3
	c2.8-7.6,5.5-15.2,8.3-22.9c2-5.5,5-6.6,11.9-3.8c-2.1,0.4-3.5,0.8-5.2,1.1c0,16.2-0.1,32.3,0.2,48.4c0,1.7,2.6,3.4,4,5.1
	c-3.5,0-8.1,0-11.5,0c0.8-2.1,2.3-4.4,2.3-6.7c0.2-12.8,0.1-25.6-0.8-38.8c-3.6,9.8-7.3,19.6-11.3,30.4
	c-4.4-10.7-8.4-20.4-12.4-30.2c-0.2,0-0.4,0.1-0.6,0.1c0,12.8-0.3,25.6,0.2,38.4c0.1,2.4,3.3,4.6,5.1,6.9c-3.8,0-8.2,0-12.6,0
	c-0.1-0.3-0.1-0.6-0.2-0.9c1.4-0.3,2.9-0.6,4.5-0.9c0-15.7,0.2-31.3-0.2-46.9C152.7,150.6,149.7,148.4,148,145.9z"/>
<path fill="#262727" d="M290.2,187.3c-2.7,0-5.5,0-7.4,0c0.6-1.7,1.7-3.4,1.7-5.1c0.2-8.6,0.3-17.3,0-25.9c-0.1-2.4-1.4-4.8-2.3-7.8
	c2.3-1,4,0.2,5.3,3.2c4,8.9,8.2,17.7,13.1,26.5c0-8.6,0.1-17.2-0.1-25.8c0-1.1-2-2.2-3.3-3.6c2.6,0,4.9,0,6.4,0c0,13.6,0,27,0,40.4
	c-0.6,0.1-1.2,0.3-1.8,0.4c-4.8-10-9.5-20.1-15-31.5c0,9.3-0.2,17.1,0.2,24.9C286.9,184.3,288.9,185.7,290.2,187.3z"/>
<g>
	<path fill="#313131" d="M212.6,151.1c-11.1,0.1-18.4,6.5-19.5,16.9c-1,9.4,5.8,18.4,15.6,20.5c2.2,0.5,4.6,0.6,6.9,0.9
		c-5.6,3.3-10.8,1-15.5-1.7c-7.8-4.4-11.2-11.7-10-20.5c1.4-9.5,7.5-15.1,16.6-17.6C208.6,150.2,210.6,150.6,212.6,151.1z"/>
	<path fill="#262727" d="M212.6,151.1c-2-0.5-3.9-0.9-5.9-1.4c14.3-2.5,21.3,3.9,24.5,11.2c4.3,9.8,1.9,21.6-10.5,27.8
		c-0.6-0.2-1.2-0.4-1.9-0.6c8.9-5.8,12.5-13.1,10.6-21.7C227.4,157.8,221.8,152.6,212.6,151.1z"/>
</g>
<g>
	<path fill="#2B2C2C" d="M266.6,186.7c0.1-0.5,0.1-1.2,0.4-1.5c11.6-8.7,10.6-26.9-2.3-33c-4.1-1.9-9.3-1.5-13.9-2.1
		c0-0.3-0.1-0.9-0.1-0.9c6.6-1.6,13-1.7,18.8,2.4c6.8,4.8,10,11.6,8.8,19.8C277.2,178.4,273.8,184.1,266.6,186.7z"/>
	<path fill="#2B2C2C" d="M244.6,152.2c-0.2,1-0.1,2.2-0.7,2.8c-5.8,6.1-6.9,13.2-4,20.7c2.9,7.7,9.1,11.5,17.1,12.5
		c0.9,0.1,1.7,1.1,2.6,1.7c-8.6,0.3-15.9-2-21.1-9.5C233.6,173.2,233.5,158.5,244.6,152.2z"/>
</g>
<path fill="#393A3A" d="M48.7,182.5c1.7-0.4,3.4-0.8,5.1-1.2c0-0.4-0.1-0.8-0.1-1.3c-2.1-0.3-4.2-0.6-8.2-1.1
	c2.3-2.6,3.6-4.9,5.5-5.8c1.2-0.6,4.3,0.4,4.8,1.5c0.9,1.9,0.7,4.5,0.4,6.8c-0.2,1.1-1.6,2-2.5,2.9c-2.4,0-4.8,0.1-7.3,0.1
	C47.2,183.8,47.9,183.1,48.7,182.5z"/>
<path fill="#393A3A" d="M192.5,311.1c0.1-1.3,0.1-2.6,0.2-3.9c4,0,8,0,11.9,0.2c1.1,0.1,2.2,1,3.3,1.5c-0.8,1.1-1.5,2.8-2.6,3.1
	c-1.9,0.6-4.1,0.3-7.1,0.5c1.8,1.4,3.1,2.4,4.3,3.3c0,0.6,0,1.2,0,1.8c-3-1.6-5.9-3.2-8.9-4.9C193.3,312.1,192.9,311.6,192.5,311.1z
	"/>
<path fill="#434343" d="M69.7,98c-0.6,1-1.1,2-1.8,3c-1.7,2.6-4.4,4.9-5.1,7.8c-1.1,4.2,0.7,5.3,5,4.2c1.2-0.3,2.6,0,3.8,0
	c0.4,1,0.7,2.1,1.1,3.1c-1,0-2,0.1-3,0.1c-0.7-0.1-1.3-0.2-2-0.2c-5.3,0.9-9.6-3.6-7.8-8.7C61.4,102.7,64.5,99.1,69.7,98z"/>
<path fill="#D7D6D5" d="M139.5,49.2c2.2,6.8,1.5,13.5,0.3,20.8c-5.1-6.2-5.4-11.2-1.5-16.8c0.4-0.6-0.3-2-0.5-3
	C138.3,49.8,138.9,49.5,139.5,49.2z"/>
<path fill="#434343" d="M248.1,99.3c-1.1-1.1-2.2-2.3-3.3-3.4c0.7,0,1.4,0.3,2,0c2.2-1,4.4-2.1,6.5-3.2c-1.2-1.7-2.3-3.4-3.8-5.4
	c1.6-2.1,4.2-2.8,6,0.1c1,1.6,0.9,5-0.1,6.4C253.6,96.2,250.5,97.6,248.1,99.3z"/>
<path fill="#393A3A" d="M142.7,297.3c1.2-0.9,2.4-1.7,4.7-3.5c-0.3,3.2-0.5,4.6-0.6,6c-1.4,1.1-3.5,2.1-3.8,3.5
	c-0.4,1.6,1,3.5,1.8,6.2c1.7-2,2.5-2.9,3.3-3.8c0.6,0.3,1.5,0.6,1.4,0.8c-0.3,1.4-0.3,3.5-1.3,4.1c-1.1,0.7-3.3,0.6-4.5-0.1
	c-3.8-1.9-4.7-6-2.7-9.7C141.6,299.7,142.1,298.5,142.7,297.3z"/>
<path fill="#343434" d="M49.7,234.4c4.1-4,4.3-4.1,7.8-1.1c-0.4,2.5-7.2,1.6-3.7,6.3c-0.7,0.9-1.4,1.8-2,2.7c0,0,0,0,0,0
	c-0.8,0.4-1.6,0.8-2.4,1.2c-1,0.4-1.9,0.8-2.9,1.1c-0.1-1.8-0.3-3.7-0.4-5.5c0.2-0.3,0.4-0.7,0.6-1c0,0-0.1,0.1-0.1,0.1
	c0.4-0.1,0.9-0.1,1.3-0.2c-0.3-0.2-0.6-0.5-0.9-0.7C47.9,236.3,48.8,235.3,49.7,234.4z"/>
<path fill="#393A3A" d="M78.8,292c3,4.2,4.7,4.3,10.3,0.8c1.9-1.2,3.6-4,6.4-1.5c0,2.1,1,5-3.2,3c-0.8-0.4-2.7,1.4-3.9,2.3
	c-5.2,3.8-7.5,3.4-11-2.2C77.9,293.6,78.4,292.8,78.8,292z"/>
<path fill="#7D7C7C" d="M33.6,135.2c2.1,0.9,4.2,1.9,6.2,2.8c-6.7-1.2-12.1,0.4-15,7.3c1.1,1.6,2.2,3.3,3.3,4.9
	c-0.4,0.2-0.8,0.4-1.1,0.6c-1.3-2.5-4.2-5.4-3.6-7.3C24.8,139,28,135.3,33.6,135.2z"/>
<path fill="#404040" d="M170.7,305.8c1.7-0.6,3.5-1.1,5.2-1.7c-0.7,3.3-1,6.7-2.3,9.7c-0.6,1.4-3.3,1.9-5.1,2.8
	c-0.4-0.6-0.8-1.2-1.2-1.8c1.5-1.5,3.2-3,4.5-4.6c0.8-0.9,1.1-2.2,1.6-3.3C172.6,306.5,171.7,306.1,170.7,305.8z"/>
<path fill="#393A3A" d="M103.7,293.1c0.3-0.6,0.7-1.2,1-1.8c4-0.5,7.9-1.2,8.3-4.9c-1.8-2.9-2.9-4.5-3.9-6.1
	c2.6,0.8,5.1,1.6,7.7,2.4c0,1.5-0.1,3-0.1,4.6c-1.2,0.9-2.2,2.1-3.5,2.6C110.1,291.2,106.9,292.1,103.7,293.1z"/>
<path fill="#404040" d="M69.7,132.5c0,0.6,0,1.2,0,1.8c-5.1-1.8-7.2-5.4-4.9-9.3c0.7-1.3,2.7-1.9,4.2-2.5c0.3-0.1,1.9,2.1,1.7,2.4
	c-0.7,1.1-2,1.8-4,3.4C67.4,129.5,68.5,131,69.7,132.5z"/>
<path fill="#484848" d="M232.7,294.2c-0.8,0-1.6,0.1-3.2,0.2c5.3-4.6-0.4-6.1-1.6-8.9c1.5-0.8,2.9-1.6,4.4-2.4
	c0.1,0.4,0,1.1,0.2,1.3C237.2,287.6,236.1,290.8,232.7,294.2z"/>
<path fill="#434343" d="M49.8,261.2c-0.3,1.3-0.6,2.5-1,3.8c-2.1-0.4-4.1-0.8-6.1-1.2c-0.6,1.7-1,2.9-1.5,4.1
	c-0.8-0.4-2.4-0.9-2.4-1.1c0.2-1.5,0.4-3.7,1.3-4.2c1.7-0.9,4-0.7,6-0.9c0.9-0.1,1.8-0.2,2.7-0.4c0,0,0.4,0,0.4,0L49.8,261.2z"/>
<path fill="#9E9E9E" d="M225.7,81.3c-4.4,2.5-8.4,1.6-12-2.9c2.5-0.3,4.8-0.7,7.1-1C222.5,78.7,224.1,80,225.7,81.3z"/>
<path fill="#555554" d="M111.6,67.3c0.6-0.7,1.3-1.4,1.9-2.1c1,1.2,1.9,2.4,3.2,4c0.7-2.1,1.1-3.2,1.5-4.3c0.5,0.1,1,0.1,1.5,0.2
	c-0.1,1.4-0.2,2.9-0.5,4.3c-0.2,0.9-0.8,1.8-1.2,2.7c-2.1-0.4-4.3-0.8-6.4-1.3c0.6-0.2,1.1-0.4,1.8-0.6
	C112.8,69.1,112.2,68.2,111.6,67.3z"/>
<path fill="#555554" d="M123.6,317.1c1.5,1.2,2.9,2.3,4.4,3.5c-1.4,2.4-2.9,4.9-4.4,7.5C123.6,324,123.6,320.6,123.6,317.1z"/>
<path fill="#787777" d="M60.9,146.1c2.8,1.4,5.6,2.9,9,4.7c-4.4,0.5-8.6,1-12.9,1.5c-0.1-0.6-0.2-1.1-0.3-1.7c1.4-0.3,2.8-0.6,4.5-1
	c-1-0.7-1.8-1.3-2.7-2C59.3,147.2,60.1,146.7,60.9,146.1z"/>
<path fill="#5B5A5A" d="M48.7,227.3c-3-0.3-6-0.6-9-0.9c-0.1-0.9-0.3-1.9-0.4-2.8c0.6-0.6,1.1-1.1,1.7-1.7c0.6,0.6,1.2,1.2,1.7,1.7
	c0.6,5.5,4.1,1,6.1,1.8C48.8,226,48.8,226.7,48.7,227.3z"/>
<path fill="#363737" d="M72.7,116.1c-0.4-1-0.7-2.1-1.1-3.1c1.6-1.1,3.2-2.3,4.8-3.4c0.1,1.2,0.2,2.5,0.4,3.7
	C75.4,114.2,74.1,115.2,72.7,116.1z"/>
<path fill="#555554" d="M109.7,70.5c-2.3,0-4.6-0.1-7-0.1C105,70.4,107.4,70.5,109.7,70.5z"/>
<path fill="#131414" d="M41,221.9c-0.6,0.6-1.1,1.1-1.7,1.7c-0.3-0.1-0.5-0.3-0.6-0.7c0-1.3-0.1-2.5-0.1-3.8
	c0.2-0.3,0.4-0.6,0.5-0.9c0.4,0,0.5-0.2,0.5-0.6c0.7-0.5,1.3-0.9,2-1.4c0,0-0.1-0.1-0.1-0.1C41.4,218.1,41.2,220,41,221.9z"/>
<path fill="#434343" d="M242.9,95.2c-0.7-1.6-1.5-3.3-2.2-4.9C241.4,91.9,242.2,93.5,242.9,95.2z"/>
<path fill="#E1E0E0" d="M213.7,297.4c1.4-1.9,2.9-2.9,4.8-0.7C216.9,296.9,215.3,297.2,213.7,297.4z"/>
<path fill="#404040" d="M192.5,311.1c0.4,0.5,0.8,1,1.2,1.5c-0.5,0.6-1,1.1-1.5,1.7c-0.5-0.7-1-1.4-1.4-2.1
	C191.3,311.8,191.9,311.5,192.5,311.1z"/>
<path fill="#555554" d="M121.7,314.5c0.2-0.9,0.4-1.8,0.5-2.6c0.4,0,0.8,0.1,1.1,0.1c-0.2,1.1-0.4,2.2-0.6,3.3
	C122.4,315,122,314.7,121.7,314.5z"/>
<path fill="#2B2C2C" d="M104.7,306.2c0.7-1,1.4-2,2.2-2.9c0.3,0.4,0.6,0.7,0.9,1.1C106.7,305,105.7,305.7,104.7,306.2L104.7,306.2z"
	/>
<path fill="#7D7C7C" d="M39.7,134.4c-1,0-2,0-3,0C37.7,134.4,38.7,134.4,39.7,134.4z"/>
<path fill="#E1E0E0" d="M208.7,293.6c0.9,0.9,1.8,1.9,2.6,2.8C210.4,295.4,209.6,294.5,208.7,293.6z"/>
<path fill="#404040" d="M158.1,307.1c0.2-0.9,0.4-1.9,0.6-2.8c0.3,0,0.7,0.1,1,0.1c0.3,0.8,0.6,1.6,1,2.4
	C159.8,306.9,159,307,158.1,307.1z"/>
<path fill="#343434" d="M49.8,261.2l-0.4,0c0,0-0.4,0-0.4,0c-0.4-0.7-0.7-1.3-1.1-2c0.9,0.3,1.9,0.7,2.8,1l0,0
	C50.4,260.6,50.1,260.9,49.8,261.2z"/>
<path fill="#131414" d="M48.7,182.5c-0.7,0.6-1.5,1.3-2.2,1.9c-0.5-0.6-1.1-1.2-1.6-1.9c0.6-0.3,1.3-0.6,1.9-0.8
	C47.3,182,48,182.2,48.7,182.5z"/>
<path fill="#404040" d="M159,311.5c-0.1-1.1-0.2-2.2-0.3-3.3C158.8,309.3,158.9,310.4,159,311.5z"/>
<path fill="#363737" d="M38.6,219.1c0,1.3,0.1,2.5,0.1,3.8C38.7,221.7,38.7,220.4,38.6,219.1z"/>
<path fill="#404040" d="M156.7,311.3c0.8,0.1,1.5,0.2,2.3,0.3C158.2,311.4,157.5,311.3,156.7,311.3z"/>
<path fill="#7D7C7C" d="M43.1,142.1c-0.2,1-0.3,2.1-0.5,3.1C42.8,144.2,42.9,143.1,43.1,142.1z"/>
<path fill="#363737" d="M67.7,116c0.7,0.1,1.3,0.2,2,0.2C69,116.1,68.4,116.1,67.7,116z"/>
<path fill="#343434" d="M45.9,253.3c0.3,0.7,0.5,1.4,0.8,2C46.4,254.6,46.2,253.9,45.9,253.3z"/>
<path fill="#363737" d="M45.7,214.3c-0.7,0.3-1.4,0.5-2.1,0.8C44.3,214.9,45,214.6,45.7,214.3z"/>
<path fill="#363737" d="M53.3,214.3c-0.5-0.2-1-0.5-1.6-0.7C52.2,213.8,52.8,214.1,53.3,214.3z"/>
<path fill="#131414" d="M47.1,237.3c0.3,0.2,0.6,0.5,0.9,0.7c-0.4,0.1-0.9,0.1-1.3,0.2C46.8,237.9,46.9,237.6,47.1,237.3z"/>
<path fill="#404040" d="M166.7,306.8c0.7-0.2,1.4-0.3,2.1-0.5C168.1,306.5,167.4,306.7,166.7,306.8z"/>
<path fill="#E1E0E0" d="M75.8,95.3c-0.7,0.2-1.4,0.4-2.1,0.6C74.4,95.7,75.1,95.5,75.8,95.3z"/>
<path fill="#D7D6D5" d="M136.8,41.1c0.2,0.4,0.4,0.8,0.7,1.2C137.2,41.9,137,41.5,136.8,41.1z"/>
<path fill="#D7D6D5" d="M137.7,43.2c0.1,0.3,0.3,0.7,0.4,1C138,43.9,137.9,43.6,137.7,43.2z"/>
<path fill="#131414" d="M41.7,216.3c0.3-0.3,0.7-0.5,1-0.8c0.3,0.5,0.6,1,0.9,1.5C42.9,216.7,42.3,216.5,41.7,216.3L41.7,216.3z"/>
<path fill="#363737" d="M43.6,217c-0.3-0.5-0.6-1-0.9-1.5c0.3-0.1,0.6-0.2,0.9-0.3c0,0.6,0.1,1.2,0.1,1.9
	C43.7,217,43.6,217,43.6,217z"/>
<path fill="#D7D6D5" d="M138.8,46.1c0.2,0.2,0.3,0.5,0.5,0.7c0,0.1-0.1,0.3-0.2,0.4c-0.1-0.2-0.3-0.5-0.4-0.7
	C138.6,46.4,138.8,46.2,138.8,46.1z"/>
<path fill="#363737" d="M39.7,217.7c0,0.4-0.2,0.5-0.5,0.6C39.2,217.9,39.3,217.7,39.7,217.7z"/>
<path fill="#555554" d="M98.7,70.9c-0.4,0.1-0.8,0.2-1.2,0.2C97.9,71.1,98.3,71,98.7,70.9z"/>
<path fill="#484848" d="M232.6,282.8c0.3-0.2,0.6-0.4,0.9-0.6C233.2,282.4,232.9,282.6,232.6,282.8z"/>
<path fill="#555554" d="M94.8,71.5c-0.4,0.2-0.8,0.4-1.3,0.6C93.9,71.9,94.3,71.7,94.8,71.5z"/>
<path fill="#555554" d="M92.8,72.5c-0.3,0.3-0.5,0.5-0.8,0.8C92.3,73,92.5,72.8,92.8,72.5z"/>
<path fill="#E1E0E0" d="M77.7,88.3c0.3,0.3,0.6,0.7,0.8,1C78.2,89,78,88.7,77.7,88.3z"/>
<path fill="#393A3A" d="M100.8,292.2c0.3,0.1,0.6,0.3,0.9,0.4C101.4,292.5,101.1,292.4,100.8,292.2z"/>
<path fill="#E1E0E0" d="M205.6,294.2c0.4-0.2,0.8-0.4,1.1-0.6C206.3,293.8,205.9,294,205.6,294.2z"/>
<path fill="#E1E0E0" d="M78.6,89.5c0.2,0.2,0.3,0.5,0.5,0.7C78.8,90.1,78.6,89.9,78.6,89.5z"/>
<path fill="#434343" d="M240.7,90.3c-0.3-0.2-0.7-0.5-1-0.7C240,89.8,240.4,90,240.7,90.3z"/>
<path fill="#2B2C2C" d="M108.3,300.2c-0.2-0.3-0.4-0.7-0.6-1C107.9,299.6,108.1,299.9,108.3,300.2z"/>
<path fill="#5B5A5A" d="M33.8,226.8c-0.4,0.1-0.8,0.2-1.2,0.3C32.9,227,33.4,226.9,33.8,226.8z"/>
<path fill="#2B2C2C" d="M103.7,303.5c-0.4,0.2-0.8,0.4-1.3,0.6C102.9,303.9,103.3,303.7,103.7,303.5z"/>
<path fill="#E1E0E0" d="M79.7,91.3c0.2,0.3,0.3,0.6,0.5,0.9C80,91.9,79.9,91.6,79.7,91.3z"/>
<path fill="#404040" d="M177.9,303.4c0.3,0.1,0.5,0.1,0.8,0.2c0,0-0.4,0.1-0.4,0.1L177.9,303.4z"/>
<path fill="#404040" d="M186.9,304.1c-0.4-0.2-0.8-0.5-1.2-0.7C186.1,303.7,186.5,303.9,186.9,304.1z"/>
<path fill="#363737" d="M56.7,212.3c-0.2,0.3-0.3,0.7-0.5,1C56.4,213,56.6,212.6,56.7,212.3z"/>
<path fill="#E1E0E0" d="M80.7,94.2c-0.3,0.3-0.7,0.6-1,0.9C80,94.9,80.4,94.6,80.7,94.2z"/>
<path fill="#131414" d="M46.7,238.2c-0.2,0.3-0.4,0.7-0.6,1C46.3,238.8,46.5,238.5,46.7,238.2z"/>
<path fill="#393A3A" d="M191.9,307.2c-0.4-0.1-0.8-0.3-1.2-0.4C191.1,306.9,191.5,307,191.9,307.2z"/>
<path fill="#7D7C7C" d="M42.9,135c-0.5-0.1-0.9-0.2-1.4-0.4C42,134.7,42.5,134.8,42.9,135z"/>
<path fill="#DEDDDC" d="M55.5,187.2c-0.3,0.4-0.5,0.7-0.8,1.1C55,187.9,55.2,187.6,55.5,187.2z"/>
<path fill="#393A3A" d="M202.6,315.7c0,0.6,0,1.2,0,1.8C202.6,316.9,202.6,316.3,202.6,315.7z"/>
<path fill="#363737" d="M47.7,213.8c-0.4,0.1-0.7,0.3-1.1,0.4C46.9,214,47.3,213.9,47.7,213.8z"/>
<path fill="#555554" d="M130,323.2c0.3,0.2,0.5,0.5,0.8,0.7C130.5,323.6,130.3,323.4,130,323.2z"/>
<path fill="#E1E0E0" d="M64.1,261c0.3-1.8,0.6-3.2,0.8-4.4c2.5-0.5,4.6-0.9,7.2-1.5c1.4,4.6,2.8,9.2,4.2,13.8
	c-7.4,1.2-10.3-1.8-7.8-8.9C67.1,260.4,65.9,260.6,64.1,261z"/>
<path fill="#DCDBDB" d="M157.4,68.4c3.6-2.7,1.5-9.4,7.5-10.4c2.7-0.4,5.5-0.3,9.1-0.5c-4.3,4.5-7.5,8.1-11.1,11.3
	c-1.1,1-3.4,0.5-5.1,0.7C157.7,69.1,157.5,68.7,157.4,68.4z"/>
<path fill="#CDCCCC" d="M176.9,73.5c3.1-4.5,6.2-8.9,9.6-13.8c0.9,3.3,1.9,6.8,3,10.7C185.6,71.3,181.4,72.3,176.9,73.5z"/>
<path fill="#DCDBDB" d="M43.6,217c0,0,0.1,0,0.1,0c3,0.2,6.5-3.2,9,1.3c-0.7,1-1.5,2-2.2,3c-2.6,0.8-5.1,1.6-7.7,2.5
	c-0.6-0.6-1.2-1.2-1.7-1.7c0.2-1.9,0.4-3.8,0.6-5.7C42.3,216.5,42.9,216.7,43.6,217z"/>
<path fill="#DFDEDE" d="M48.7,227.3c0.1-0.6,0.1-1.2,0.2-1.9c2.1-1.4,4.3-2.8,6.4-4.2l0,0c5.7-4.1,5.8,2.4,8.3,4.4c0,0,0.1,0,0.1,0
	c-0.9,0.5-1.9,1-2.8,1.5c-2.3-1.5-3.2-0.6-3.2,1.9c-1-0.2-2-0.5-3-0.7c-0.7-0.2-1.3-0.4-2-0.5C51.3,227.6,50,227.4,48.7,227.3z"/>
<path fill="#D7D6D5" d="M115.5,78.7c-4.3,4.9-8.7,9.8-13.2,14.9c-2.5-3.9-1.9-5.7,1.4-7.7c2-1.2,3.7-3,5.5-4.5
	c1.7-1.4,3.5-2.8,5.3-4.1C114.8,77.8,115.2,78.3,115.5,78.7z"/>
<path fill="#CDCCCC" d="M74.2,250.9c3.9,3,7.8,6,11.6,8.9c-1.8,1.5-2.9,2.4-5,4.2c-2.6-3.8-5.3-7.9-8-11.9
	C73.3,251.8,73.8,251.4,74.2,250.9z"/>
<path fill="#D7D6D5" d="M177.5,63.7c-0.8,1.3-0.9,1.8-1.3,2.1c-3.7,3.2-7.3,6.3-11,9.4c-0.4-0.3-0.8-0.5-1.1-0.8
	c2.9-4.1,5.8-8.3,9-12.2C173.5,61.9,175.9,63.2,177.5,63.7z"/>
<path fill="#D7D6D5" d="M119.1,87.2c-2,0-3.9,0-5.9,0c0.2-1.5,0.2-3.3,0.9-4.6c0.4-0.8,2.7-1.6,3.1-1.2c1.3,1.1,2.1,2.8,3.1,4.3
	C119.9,86.3,119.5,86.7,119.1,87.2z"/>
<path fill="#CDCCCC" d="M159.7,304.4c-0.3,0-0.7-0.1-1-0.1c-0.5-0.7-1.1-1.4-1.6-2c1-0.5,2-1.4,2.9-1.3c3.1,0.2,6.1,0.8,9.3,2.3
	c-1.5,0.5-3.1,1.1-4.6,1.6c-1,0-2,0-3,0C161.1,304.6,160.4,304.5,159.7,304.4z"/>
<path fill="#C1C0C0" d="M63.7,225.7c0,0-0.1,0-0.1,0c1.1,0.1,2.1,0.3,3.3,0.5c0,2.2,0,4.3,0,7.6c-2.5-1.3-4.4-2.3-6.3-3.2
	c0.4-0.4,0.8-0.8,1.1-1.2C62.4,228.1,63,226.9,63.7,225.7z"/>
<path fill="#C1C0C0" d="M51.8,242.3c0.7-0.9,1.4-1.8,2-2.7c6.6-1.9,9.5-0.7,9.6,4.9C60.1,238.8,55.8,241.5,51.8,242.3z"/>
<path fill="#C1C0C0" d="M109.1,280.3c0,0,0.2,0.1,0.2,0.1c-0.2-1-0.3-2.1-0.7-4.3c4,1.6,6.9,2.9,10.3,4.2c-1.1,1.2-1.6,1.9-2.1,2.5
	C114.2,282,111.6,281.2,109.1,280.3z"/>
<path fill="#5B5A5A" d="M61.7,229.3c-0.4,0.4-0.8,0.8-1.1,1.2c-1-0.5-2-1-3-1.5c0-2.5,0.9-3.4,3.2-1.9c-0.5,0.4-1,0.8-1.6,1.1
	C60.1,228.6,60.9,228.9,61.7,229.3z"/>
<path fill="#363737" d="M50.5,221.2c0.7-1,1.5-2,2.2-3c0.9,1,1.8,2,2.6,3c0,0,0,0,0,0C53.7,221.2,52.1,221.2,50.5,221.2z"/>
<path fill="#C1C0C0" d="M49.4,243.5c0.8-0.4,1.6-0.8,2.4-1.2c-0.6,1-1.1,2-1.7,3C49.8,244.7,49.6,244.1,49.4,243.5z"/>
<path fill="#404040" d="M161.7,304.7c1,0,2,0,3,0C163.7,304.7,162.7,304.7,161.7,304.7z"/>
<path fill="#343434" d="M49.5,248.5c-0.1,0.1-0.2,0.2-0.3,0.3c-0.1-0.2-0.3-0.5-0.3-0.7c0-0.1,0.2-0.2,0.3-0.3
	C49.3,248,49.4,248.2,49.5,248.5z"/>
<path fill="#5B5A5A" d="M52.6,227.8c0.7,0.2,1.3,0.4,2,0.5C54,228.1,53.3,227.9,52.6,227.8z"/>
<path fill="#343434" d="M50.7,260.2c0.1,0.1,0.3,0.3,0.4,0.4c-0.1,0-0.2,0-0.3-0.1C50.8,260.5,50.8,260.4,50.7,260.2
	C50.7,260.3,50.7,260.2,50.7,260.2z"/>
<path fill="#363737" d="M72.7,104.6c-0.2-0.1-0.4-0.3-0.7-0.4C72.3,104.2,72.5,104.3,72.7,104.6z"/>
<path fill="#363737" d="M79.7,111.6c0.3,0.2,0.6,0.4,0.9,0.7C80.3,112.1,80,111.9,79.7,111.6z"/>
<path fill="#2B2C2C" d="M104.7,306.3c-0.1,0.1-0.3,0.3-0.4,0.4c0-0.1,0-0.2,0.1-0.3C104.4,306.3,104.6,306.3,104.7,306.3
	C104.7,306.2,104.7,306.3,104.7,306.3z"/>
<path fill="#131414" d="M50.5,221.2c1.6,0,3.2,0,4.8,0c-2.1,1.4-4.3,2.8-6.4,4.2c-2-0.7-5.5,3.7-6.1-1.8
	C45.3,222.8,47.9,222,50.5,221.2z"/>
<path fill="#131414" d="M126,66.7c0-0.4,0-0.8,0.1-1.2c0.3,0.1,0.7,0.3,1,0.4C126.7,66.2,126.3,66.5,126,66.7z"/>
<path fill="#131414" d="M61.7,229.3c-0.8-0.3-1.6-0.7-2.4-1c0.5-0.4,1-0.8,1.6-1.1c0.9-0.5,1.9-1,2.8-1.5
	C63,226.9,62.4,228.1,61.7,229.3z"/>
<g>
	<path fill="#212121" d="M173.5,241.6c0,0.6-0.3,1-0.8,1.3c-0.5,0.3-1,0.4-1.5,0.4c-0.7,0-1.3-0.2-2-0.5c-0.7-0.3-1.4-0.8-2.2-1.4
		c-0.4-0.3-0.9-0.7-1.5-1.3s-1.3-1.2-2.1-1.9c-0.2-0.2-0.6-0.5-1.2-1.1c-0.6-0.5-1.4-1.3-2.3-2.2c-1.9-1.8-3-2.7-3.3-2.8
		c-0.4-0.2-1-0.2-1.9-0.2c-0.2,0-0.5,0-0.9,0c-0.4,0-0.9,0.1-1.5,0.1c-0.4-0.4-0.7-1-0.7-1.9c0-0.8,0.2-1.3,0.7-1.4
		c0.1,0,0.2,0,0.3-0.1c0.1,0,0.3,0,0.5-0.1c0.2,0,0.4,0,0.6-0.1c0.2,0,0.4,0,0.6-0.1c1.6-0.3,3-0.8,4.2-1.6c0.4-0.3,0.9-0.6,1.3-0.9
		c0.4-0.3,0.9-0.6,1.3-1c0.9-0.7,1.6-1.5,2.3-2.3c0.7-0.8,1-1.6,1-2.4c0-0.6-0.1-1.2-0.4-1.7c-0.3-0.5-0.7-1-1.2-1.5
		c-0.5-0.4-1-0.8-1.5-1.1s-1.1-0.6-1.6-0.7c-0.9-0.3-1.8-0.4-2.7-0.4c-0.3,0-0.6,0-1,0s-0.8,0.1-1.3,0.1c-0.5,0.1-0.9,0.1-1.3,0.2
		c-0.4,0.1-0.8,0.1-1.1,0.2s-0.7,0.1-1.1,0.2c-0.4,0.1-0.8,0.2-1.3,0.3c0.3,0.5,0.5,1.3,0.7,2.4s0.3,2,0.3,2.7c0,0.4,0,0.8,0,1.2
		c0,0.4,0,0.8-0.1,1.1c0,0.4-0.1,0.7-0.1,1.1c0,0.4-0.1,0.8-0.2,1.2c-0.1,0.8-0.3,1.8-0.4,3c-0.3,2.1-0.5,3.7-0.6,4.9
		c-0.1,0.6-0.1,1.2-0.1,1.8c0,0.6-0.1,1.1-0.1,1.6c0,1,0.1,1.8,0.2,2.6c0.1,0.8,0.4,1.5,0.8,2.3c-0.2,0.3-0.4,0.6-0.7,0.8
		c-0.3,0.2-0.6,0.3-0.9,0.3c-0.8,0-1.4-0.2-1.8-0.6c-0.4-0.4-0.6-0.9-0.7-1.5c-0.1-0.6-0.1-1.4-0.1-2.6c0-0.7,0-1.5,0.1-2.3
		c0.1-0.8,0.2-1.5,0.3-2.2c0.1-0.7,0.2-1.3,0.3-2.1c0.1-0.3,0.1-0.7,0.2-1.2c0.1-0.5,0.1-1,0.2-1.6c0.2-1.2,0.3-2.4,0.4-3.6
		c0.1-1.1,0.2-2.2,0.2-3.1c0-0.9,0-1.7-0.1-2.7c0-0.9-0.1-1.9-0.2-2.9c-1.3,0.5-2,0.7-2.2,0.7c-0.4,0-0.6-0.1-0.7-0.4
		c-0.1-0.3-0.2-0.6-0.2-1.1c0-0.5,0.4-1,1.3-1.5c0.4-0.2,0.9-0.5,1.3-0.7s0.8-0.4,1.3-0.5c1-0.4,2.2-0.7,3.8-1
		c1.6-0.3,2.9-0.4,4-0.4c1.8,0,3.6,0.3,5.3,0.8c1.7,0.5,3.1,1.4,4.3,2.6c1.2,1.3,1.8,3,1.8,5.1c0,1.4-0.4,2.7-1.3,3.9
		c-0.9,1.3-1.9,2.3-3,3.3c-1.2,0.9-2.4,1.8-3.8,2.7c0.8,0.6,1.9,1.5,3.2,2.7c0.7,0.6,1.3,1.1,1.9,1.6c0.6,0.5,1.1,1,1.7,1.4
		c0.5,0.4,1.1,0.9,1.7,1.4c0.6,0.5,1.3,1.1,2.1,1.7c0.8,0.6,1.4,1.1,2,1.6C172.6,240.9,173.1,241.3,173.5,241.6z"/>
	<g>
		<path fill="#212121" d="M197.9,224.7c0,0.2-0.1,0.6-0.4,1.1c-0.6,1.1-1.3,2.1-2.1,3.2c-0.8,1.1-1.6,2.1-2.4,3
			c-0.9,0.9-1.8,1.8-2.7,2.7c-0.9,0.8-1.9,1.5-2.8,2.1c-1,0.6-1.9,1.1-2.9,1.4s-1.9,0.5-2.7,0.5c-1.9,0-3.4-0.7-4.4-2
			s-1.6-3.3-1.6-5.9c0-2.2,0.3-4.4,0.9-6.4c0.6-2.1,1.6-4.1,3-6c0.3-0.3,0.6-0.7,0.9-1c0.3-0.3,0.7-0.6,1-0.8
			c0.4-0.2,0.7-0.4,1.1-0.6s0.8-0.2,1.2-0.3c0.1,0,0.2,0,0.4,0c0.2,0,0.3,0.1,0.5,0.1c0.2,0.1,0.4,0.2,0.6,0.3s0.3,0.2,0.4,0.4
			c0.3,0.5,0.6,0.9,0.8,1.4c0.2,0.5,0.3,1,0.3,1.6c0,0.6,0,1.3-0.2,1.9c-0.1,0.6-0.4,1.3-0.8,1.9c-0.4,0.7-0.8,1.3-1.4,2
			c-0.6,0.7-1.3,1.4-2.1,2.2c-0.5,0.5-1.1,1.1-1.7,1.7c-0.6,0.6-1.4,1.3-2.3,1.9c0,1.4,0.3,2.4,1,3.1c0.7,0.7,1.7,1.1,2.9,1.1
			c0.7,0,1.4-0.1,2.1-0.3c0.7-0.2,1.4-0.5,2-0.8s1.3-0.7,1.9-1.2c0.6-0.4,1.2-0.9,1.8-1.4c1-0.9,1.9-1.7,2.8-2.6
			c0.8-0.9,1.6-1.8,2.4-2.7l1-1.1c0.6-0.6,1-0.9,1.3-0.9C197.8,224.3,197.9,224.5,197.9,224.7z M184.2,220.5c0-0.2,0-0.4-0.1-0.6
			c0-0.2-0.1-0.4-0.2-0.5c-0.1-0.2-0.2-0.3-0.3-0.4c-0.1-0.1-0.2-0.1-0.4-0.1c-0.6,0-1.3,0.5-1.9,1.4c-0.6,0.9-1.2,2-1.8,3.4
			c-0.1,0.3-0.2,0.7-0.3,1c-0.1,0.4-0.2,0.8-0.3,1.2c-0.1,0.4-0.2,0.8-0.2,1.2s-0.1,0.7-0.2,1.1c0.6-0.5,1.2-1.1,1.7-1.5
			s1-0.9,1.5-1.4c0.3-0.3,0.6-0.6,0.9-1c0.3-0.4,0.6-0.7,0.8-1.1s0.4-0.8,0.6-1.2S184.2,221,184.2,220.5z"/>
		<path fill="#212121" d="M213.8,224.1c0,0.2-0.1,0.5-0.2,0.7s-0.3,0.6-0.4,0.9c-0.2,0.3-0.4,0.6-0.6,0.9c-0.2,0.3-0.5,0.6-0.7,0.9
			c-0.2,0.2-0.4,0.5-0.6,0.7c-0.2,0.2-0.4,0.5-0.7,0.8c-0.3,0.3-0.6,0.7-0.9,1.1c-0.3,0.4-0.8,0.9-1.2,1.4c-0.4,0.5-0.9,1-1.4,1.5
			c-0.5,0.5-1,1-1.5,1.6c-0.5,0.5-1,1-1.5,1.5c-0.5,0.5-0.9,0.9-1.3,1.2c-0.9,0.8-1.7,1.6-2.4,2.4c-0.8,0.7-1.5,1.4-2.3,2
			c-1.5,1.2-2.7,1.8-3.5,1.8c-0.3,0-0.6-0.1-1-0.3c-0.4-0.2-0.6-0.4-0.6-0.8c0-0.9,0.3-1.6,0.9-2.2c0.6-0.5,1.5-1,2.7-1.6
			c1.2-0.6,2.1-1.1,2.7-1.6c0.6-0.5,0.9-1.3,0.9-2.2c0-0.5-0.4-1.4-1.2-2.8c-0.4-0.7-0.8-1.4-1.1-2c-0.3-0.6-0.6-1.1-0.8-1.6
			c-0.5-1-0.7-2-0.7-3.1c0-0.9,0.1-1.9,0.4-3c0.1-0.6,0.4-1.2,0.7-1.8s0.7-1.1,1-1.6c0.4-0.5,0.7-0.8,1.1-1.1c0.4-0.3,0.7-0.4,1-0.4
			c1,0,1.6,0.7,1.6,2.2c0,0.6-0.2,1.1-0.5,1.6c-0.2,0.3-0.4,0.5-0.6,0.8c-0.2,0.3-0.5,0.6-0.8,0.9c-0.3,0.3-0.6,0.6-0.8,0.8
			c-0.2,0.2-0.4,0.4-0.5,0.6c0,0.7,0.2,1.6,0.6,2.6c0.2,0.5,0.4,1,0.7,1.6c0.3,0.6,0.6,1.2,0.9,1.8c0.3,0.6,0.6,1.2,0.9,1.7
			s0.4,0.9,0.5,1.1c0,0.1,0.1,0.1,0.2,0.1c0.2,0,0.5-0.1,0.9-0.4c0.4-0.3,0.9-0.7,1.5-1.2c0.6-0.5,1.2-1,1.9-1.7
			c0.7-0.6,1.3-1.3,2-2c0.7-0.7,1.3-1.4,1.7-1.9c0.5-0.5,0.9-1.1,1.3-1.5c0.4-0.5,0.7-0.8,0.9-1.1c0.2-0.3,0.3-0.4,0.3-0.4
			c0.1,0,0.2,0,0.3,0.1c0.1,0.1,0.2,0.2,0.2,0.3s0.1,0.3,0.2,0.4C213.7,223.8,213.8,223.9,213.8,224.1z"/>
		<path fill="#212121" d="M229.2,220.7c0,0.5-0.1,0.9-0.4,1.2c-0.2,0.3-0.5,0.5-0.8,0.7c-0.4,0.2-0.8,0.4-1.3,0.6s-1,0.3-1.5,0.5
			c-0.5,0.1-1,0.2-1.5,0.3c-0.5,0.1-1,0.2-1.5,0.2c-0.5,0.1-1,0.1-1.6,0.2c-0.6,0.1-1.1,0.1-1.6,0.2c-0.5,0.1-1,0.1-1.5,0.2
			c-0.4,0.1-0.8,0.2-1.1,0.3c-0.3,1.3-0.5,2.5-0.8,3.7c-0.3,1.2-0.5,2.3-0.7,3.5c0,0.3-0.1,0.7-0.2,1.2c-0.1,0.5-0.2,1.1-0.2,1.7
			s-0.1,1.1-0.2,1.6s-0.1,0.9-0.1,1.1c0,0.6,0.1,1,0.2,1.3c0.2,0.3,0.3,0.5,0.5,0.7s0.4,0.3,0.5,0.5c0.2,0.2,0.2,0.4,0.2,0.7
			c0,0.2-0.1,0.4-0.2,0.6c-0.2,0.2-0.4,0.3-0.6,0.5s-0.5,0.3-0.7,0.3c-0.3,0.1-0.5,0.1-0.7,0.1c-0.3,0-0.7-0.1-0.9-0.3
			s-0.5-0.5-0.7-0.9c-0.2-0.4-0.3-0.8-0.4-1.2s-0.2-0.9-0.2-1.4c0-0.6,0-1.3,0.1-2.1c0.1-0.7,0.2-1.5,0.4-2.3
			c0.1-0.8,0.3-1.6,0.5-2.4c0.2-0.8,0.3-1.6,0.5-2.4c0.1-0.3,0.1-0.7,0.2-1c0.1-0.4,0.1-0.7,0.2-1s0.1-0.6,0.1-0.8
			c0-0.2,0.1-0.3,0.1-0.4c0-0.2-0.1-0.4-0.2-0.5c-0.1-0.1-0.3-0.2-0.5-0.2c-0.1,0-0.4,0-0.6,0s-0.6,0.1-0.9,0.1
			c-0.3,0-0.6,0.1-0.9,0.1s-0.5,0-0.6,0c-0.4,0-0.8,0-1.1-0.1s-0.5-0.2-0.7-0.3c-0.2-0.2-0.3-0.4-0.4-0.7c-0.1-0.3-0.1-0.7-0.1-1.2
			c0-0.2,0.1-0.4,0.2-0.5c0.2-0.1,0.3-0.2,0.6-0.2c0.2,0,0.5-0.1,0.7-0.1s0.5,0,0.7,0c0.2,0,0.4,0,0.8-0.1s0.7-0.1,1.1-0.1
			c0.4,0,0.8-0.1,1.1-0.1c0.4,0,0.6-0.1,0.8-0.1c0.1,0,0.2,0,0.3,0c0.1,0,0.2-0.1,0.3-0.1c0.1-0.1,0.2-0.2,0.3-0.3
			c0.1-0.1,0.2-0.4,0.2-0.6c0.1-0.4,0.2-0.9,0.3-1.5c0.1-0.6,0.2-1.2,0.4-1.8c0.1-0.6,0.2-1.2,0.4-1.8c0.1-0.6,0.2-1.1,0.3-1.5
			c0.1-0.4,0.2-3.8,0.3-4.3c0.1-0.5,0.1,2.1,0.2,1.7s0.1-0.9,0.2-1.3s0.2-0.8,0.3-1.2c0.3-0.7,0.7-1.1,1.3-1.1
			c0.9,0,1.3,0.6,1.3,1.7c0,0.7-0.1,1.5-0.4,2.5c-0.6,2.1-1,3.9-1.3,5.3c-0.3,1.4-0.4,2.3-0.4,2.8c0,0.5,0.2,0.8,0.7,0.8
			c0.5,0,1,0,1.5,0c0.5,0,0.9-0.1,1.4-0.1c0.5,0,1-0.1,1.5-0.2s1.1-0.1,1.8-0.2c0.5-0.1,0.9-0.2,1.4-0.3c0.4-0.1,0.8-0.2,1.2-0.3
			c0.4-0.1,0.7-0.2,1-0.3c0.3-0.1,0.5-0.1,0.7-0.2c0.1,0,0.3,0,0.4-0.1s0.2,0,0.3,0c0.1,0,0.2,0.1,0.2,0.2
			C229.2,220.4,229.2,220.5,229.2,220.7z"/>
	</g>
	<path fill="#212121" d="M249,225.5c0,0.5-0.1,1-0.3,1.5c-0.2,0.5-0.5,1-0.8,1.5c-0.8,1.2-1.5,2.3-2.4,3.3c-0.8,1-1.6,1.9-2.5,2.8
		c-0.9,0.9-1.7,1.7-2.6,2.2c-0.9,0.5-1.6,0.8-2.3,0.8c-0.3,0-0.6-0.1-0.9-0.3c-0.3-0.2-0.6-0.4-0.8-0.7c-0.3-0.3-0.5-0.6-0.7-1
		c-0.2-0.4-0.3-0.7-0.5-1.1c-0.1-0.2-0.1-0.5-0.2-0.7c0-0.3-0.1-0.5-0.1-0.8c0-0.2-0.1-0.4-0.2-0.6s-0.1-0.2-0.2-0.2
		c0,0-0.1,0.1-0.3,0.3c-0.2,0.2-0.3,0.4-0.5,0.7c-0.2,0.3-0.4,0.6-0.7,1c-0.2,0.4-0.5,0.7-0.7,1s-0.4,0.6-0.6,0.9
		c-0.2,0.3-0.3,0.5-0.4,0.6c-0.4,0.5-0.8,1-1.3,1.5c-0.5,0.5-1,1-1.5,1.4c-0.5,0.4-1,0.8-1.4,1c-0.4,0.3-0.7,0.4-0.9,0.4
		c-0.5,0-0.9-0.1-1.3-0.3s-0.8-0.4-1.1-0.8c-0.3-0.3-0.6-0.8-0.8-1.2c-0.2-0.5-0.3-1.1-0.3-1.7c0-1,0.2-2.2,0.5-3.6
		c0.4-1.3,0.8-2.7,1.4-4.1c0.6-1.4,1.2-2.7,2-4c0.8-1.3,1.5-2.4,2.3-3.3c0.9-1.1,1.9-1.8,3-2.3c1-0.5,2.1-0.7,3.2-0.7
		c0.2,0,0.4,0,0.5,0.1c0.1,0.1,0.3,0.2,0.4,0.4c0.1,0.2,0.2,0.3,0.3,0.5c0.1,0.2,0.2,0.4,0.3,0.6c0,0.1,0.1,0.3,0.3,0.4
		c0.2,0.2,0.3,0.3,0.5,0.5c0.2,0.2,0.3,0.3,0.4,0.5c0.1,0.2,0.2,0.3,0.2,0.4c0,0.3-0.1,0.6-0.2,1c-0.1,0.4-0.2,0.8-0.3,1.2
		c-0.1,0.5-0.2,1-0.3,1.6c-0.1,0.6-0.2,1.3-0.2,2.1c0,0.5,0,1.1,0.1,1.7c0.1,0.6,0.2,1.3,0.4,1.8c0.2,0.6,0.4,1.1,0.6,1.5
		c0.3,0.4,0.5,0.6,0.9,0.6c0.4,0,0.8-0.1,1.2-0.4s0.9-0.7,1.4-1.1c1.2-1.1,2.3-2.3,3.3-3.6c1-1.3,2.1-2.6,3.2-3.9
		c0.2-0.2,0.4-0.3,0.5-0.3C248.9,224.7,249,225,249,225.5z M235,223c0,0,0-0.1-0.1-0.2c0-0.1-0.1-0.3-0.2-0.4s-0.2-0.3-0.3-0.4
		c-0.1-0.1-0.2-0.2-0.3-0.2h0c-0.4,0.1-0.9,0.2-1.4,0.5c-0.5,0.3-1,0.7-1.6,1.3c-0.6,0.6-1.1,1.4-1.8,2.3c-0.6,0.9-1.3,2.1-1.9,3.4
		c-0.2,0.4-0.4,0.9-0.7,1.3s-0.5,1-0.7,1.6s-0.4,1.2-0.6,1.9c-0.1,0.7-0.2,1.4-0.2,2.1c0,0.4,0.1,0.8,0.4,1c0.3,0.2,0.5,0.3,0.8,0.3
		c0.3,0,0.7-0.2,1.2-0.6c0.5-0.4,1-0.9,1.5-1.5c0.6-0.6,1.1-1.4,1.7-2.2c0.6-0.8,1.1-1.7,1.6-2.5c0.5-0.9,0.9-1.7,1.3-2.6
		s0.6-1.6,0.7-2.3c0-0.2,0.1-0.5,0.1-0.7c0-0.3,0.1-0.6,0.1-0.9s0.1-0.6,0.1-0.8C235,223.3,235,223.2,235,223z"/>
	<path fill="#212121" d="M277.8,223.4c0,0.1,0,0.3-0.1,0.5c-0.4,1-1,2.1-1.5,3.2s-1.2,2.2-1.9,3.2c-0.7,1.1-1.4,2-2.1,3
		c-0.7,0.9-1.5,1.8-2.2,2.5c-0.7,0.7-1.5,1.3-2.2,1.7c-0.7,0.4-1.4,0.6-2,0.6c-1.4,0-2.5-0.6-3.2-1.9c-0.8-1.2-1.2-3.1-1.2-5.5
		l-0.2-0.1c-0.1,0.1-0.3,0.4-0.6,0.9c-0.3,0.4-0.6,0.9-1,1.5c-0.4,0.6-0.8,1.2-1.3,1.8c-0.5,0.6-0.9,1.2-1.4,1.7
		c-0.3,0.3-0.7,0.7-1.1,1.1c-0.4,0.4-0.9,0.8-1.4,1.2s-1.1,0.7-1.7,1c-0.6,0.3-1.3,0.5-2,0.5c-0.8,0-1.5-0.2-2-0.6s-0.9-0.9-1.1-1.5
		c-0.3-0.6-0.4-1.2-0.5-2c-0.1-0.7-0.1-1.4-0.1-2.1c0-0.1,0-0.3,0-0.6c0-0.3,0.1-0.8,0.1-1.3c0-0.5,0.1-1.1,0.2-1.7s0.2-1.3,0.3-1.9
		c0.1-0.7,0.2-1.3,0.4-1.9c0.1-0.6,0.3-1.2,0.5-1.8c0.1-0.3,0.2-0.6,0.3-0.8c0.1-0.3,0.2-0.5,0.3-0.6c0.1-0.2,0.2-0.3,0.3-0.4
		c0.1-0.1,0.3-0.2,0.5-0.2c0.2,0,0.4,0.1,0.6,0.2s0.3,0.3,0.4,0.4c0.1,0.2,0.2,0.4,0.2,0.6s0.1,0.4,0.1,0.6s-0.1,0.6-0.2,1.2
		c-0.2,0.6-0.3,1.4-0.5,2.3s-0.4,1.9-0.5,3s-0.2,2.2-0.2,3.4c0,0.2,0,0.5,0.1,0.8c0,0.3,0.1,0.6,0.2,0.9c0.1,0.3,0.3,0.5,0.4,0.7
		s0.4,0.3,0.7,0.3c0.4,0,0.8-0.1,1.3-0.3c0.4-0.2,0.9-0.4,1.3-0.7s0.8-0.6,1.2-0.9s0.8-0.7,1.1-1.1c0.3-0.4,0.7-0.8,1.1-1.3
		c0.4-0.5,0.8-1,1.1-1.6c0.4-0.5,0.7-1.1,1-1.6c0.3-0.5,0.6-1,0.8-1.5c0.1-0.2,0.3-0.6,0.5-1.1c0.2-0.5,0.4-1,0.6-1.5
		c0.2-0.5,0.4-1,0.5-1.5c0.2-0.5,0.3-0.8,0.3-1.1c0-0.2,0.1-0.4,0.1-0.6c0-0.2,0.1-0.4,0.1-0.5c0-0.2,0.1-0.4,0.1-0.6
		c0-0.2,0.1-0.4,0.2-0.7c0-0.1,0.1-0.2,0.2-0.3c0.1-0.1,0.2-0.2,0.4-0.3c0.1-0.1,0.3-0.2,0.4-0.2s0.3-0.1,0.4-0.1
		c0.3,0,0.6,0.1,0.8,0.4c0.2,0.2,0.3,0.5,0.3,0.9c0,0,0,0.2-0.1,0.5s-0.1,0.7-0.2,1.2c-0.1,0.5-0.2,1.1-0.3,1.7
		c-0.1,0.6-0.2,1.3-0.3,2c-0.1,0.7-0.2,1.3-0.2,2c-0.1,0.7-0.1,1.2-0.1,1.8c0,1.5,0.2,2.6,0.6,3.4s1,1.2,1.7,1.2
		c0.6,0,1.2-0.2,1.9-0.6s1.3-1,2-1.6c0.7-0.7,1.3-1.4,1.9-2.3c0.6-0.8,1.2-1.7,1.8-2.5s1.1-1.6,1.6-2.4c0.5-0.8,0.9-1.4,1.3-1.9
		c0.4-0.5,0.7-0.7,0.9-0.7c0.1,0,0.2,0.1,0.3,0.2S277.8,223.3,277.8,223.4z"/>
	<path fill="#212121" d="M290.7,225.3c0,0.1,0,0.2,0,0.4c0,0.2,0,0.3-0.1,0.5c0,0.2-0.1,0.3-0.2,0.4c-0.1,0.1-0.2,0.2-0.3,0.2
		c-0.1,0-0.2,0-0.4,0c-0.2,0-0.3,0-0.5,0c-0.2,0-0.4,0-0.5,0c-0.2,0-0.3,0-0.4,0c-2.3,0.2-4.2,1.2-5.7,3c-1.5,1.8-2.8,4.1-3.9,7
		c-0.2,0.6-0.4,1.2-0.6,1.9c-0.2,0.6-0.4,1.3-0.6,2c-0.1,0.4-0.2,0.7-0.2,1c0,0.3-0.1,0.6-0.2,1c0,0.1-0.1,0.2-0.3,0.3
		c-0.2,0.1-0.4,0.2-0.6,0.3s-0.4,0.2-0.6,0.2c-0.2,0.1-0.3,0.1-0.4,0.1c-0.8,0.1-1.3-0.9-1.4-3c0-0.6-0.1-1.1,0-1.5s0-0.9,0-1.3
		c0-0.4,0.1-0.9,0.1-1.4c0-0.5,0.1-1,0.1-1.6c0.1-0.7,0.1-1.6,0.2-2.5c0.1-1,0.2-1.9,0.3-2.9c0.1-1,0.2-1.9,0.3-2.8s0.2-1.6,0.4-2.2
		c0.1-0.7,0.3-1.2,0.5-1.5s0.6-0.5,1-0.5c0.1,0,0.2,0,0.4,0.1c0.1,0.1,0.3,0.2,0.4,0.3c0.1,0.1,0.2,0.3,0.3,0.4
		c0.1,0.1,0.1,0.3,0.1,0.4c0,0.4,0,0.7,0,1.1c0,0.4-0.1,0.8-0.1,1.3c-0.1,0.4-0.1,0.9-0.2,1.3s-0.2,0.9-0.3,1.3
		c-0.2,0.8-0.3,1.5-0.4,2.1c-0.1,0.6-0.2,1.1-0.2,1.7c-0.1,0.5-0.1,1.1-0.2,1.7c-0.1,0.6-0.1,1.4-0.2,2.3c0.2-0.5,0.4-1,0.5-1.4
		c0.1-0.4,0.3-0.7,0.4-1c0.1-0.3,0.2-0.5,0.3-0.8s0.2-0.5,0.3-0.7s0.3-0.5,0.4-0.8c0.1-0.3,0.3-0.7,0.5-1.1c0.8-1.6,1.7-3,2.7-4
		c1-1,1.9-1.8,2.8-2.2c1-0.6,1.8-0.9,2.5-0.9c0.3,0,0.7,0,1.1,0.1s0.8,0.2,1.2,0.3c0.4,0.2,0.7,0.4,1,0.6S290.7,224.9,290.7,225.3z"
		/>
	<g>
		<g>
			<path fill="#212121" d="M316.1,219.5c0,0.5-0.1,1-0.3,1.5c-0.2,0.5-0.5,1-0.8,1.5c-0.8,1.2-1.5,2.3-2.4,3.3
				c-0.8,1-1.6,1.9-2.5,2.8c-0.9,0.9-1.7,1.7-2.6,2.2c-0.9,0.5-1.6,0.8-2.3,0.8c-0.3,0-0.6-0.1-0.9-0.3c-0.3-0.2-0.6-0.4-0.8-0.7
				c-0.3-0.3-0.5-0.6-0.7-1c-0.2-0.4-0.3-0.7-0.5-1.1c-0.1-0.2-0.1-0.5-0.2-0.7c0-0.3-0.1-0.5-0.1-0.8c0-0.2-0.1-0.4-0.2-0.6
				s-0.1-0.2-0.2-0.2c0,0-0.1,0.1-0.3,0.3c-0.2,0.2-0.3,0.4-0.5,0.7c-0.2,0.3-0.4,0.6-0.7,1c-0.2,0.4-0.5,0.7-0.7,1
				s-0.4,0.6-0.6,0.9c-0.2,0.3-0.3,0.5-0.4,0.6c-0.4,0.5-0.8,1-1.3,1.5c-0.5,0.5-1,1-1.5,1.4c-0.5,0.4-1,0.8-1.4,1
				c-0.4,0.3-0.7,0.4-0.9,0.4c-0.5,0-0.9-0.1-1.3-0.3s-0.8-0.4-1.1-0.8c-0.3-0.3-0.6-0.8-0.8-1.2c-0.2-0.5-0.3-1.1-0.3-1.7
				c0-1,0.2-2.2,0.5-3.6c0.4-1.3,0.8-2.7,1.4-4.1c0.6-1.4,1.2-2.7,2-4c0.8-1.3,1.5-2.4,2.3-3.3c0.9-1.1,1.9-1.8,3-2.3
				c1-0.5,2.1-0.7,3.2-0.7c0.2,0,0.4,0,0.5,0.1c0.1,0.1,0.3,0.2,0.4,0.4c0.1,0.2,0.2,0.3,0.3,0.5c0.1,0.2,0.2,0.4,0.3,0.6
				c0,0.1,0.1,0.3,0.3,0.4c0.2,0.2,0.3,0.3,0.5,0.5c0.2,0.2,0.3,0.3,0.4,0.5c0.1,0.2,0.2,0.3,0.2,0.4c0,0.3-0.1,0.6-0.2,1
				c-0.1,0.4-0.2,0.8-0.3,1.2c-0.1,0.5-0.2,1-0.3,1.6c-0.1,0.6-0.2,1.3-0.2,2.1c0,0.5,0,1.1,0.1,1.7c0.1,0.6,0.2,1.3,0.4,1.8
				c0.2,0.6,0.4,1.1,0.6,1.5c0.3,0.4,0.5,0.6,0.9,0.6c0.4,0,0.8-0.1,1.2-0.4s0.9-0.7,1.4-1.1c1.2-1.1,2.3-2.3,3.3-3.6
				c1-1.3,2.1-2.6,3.2-3.9c0.2-0.2,0.4-0.3,0.5-0.3C316,218.7,316.1,219,316.1,219.5z M302.2,217c0,0,0-0.1-0.1-0.2
				c0-0.1-0.1-0.3-0.2-0.4s-0.2-0.3-0.3-0.4c-0.1-0.1-0.2-0.2-0.3-0.2h0c-0.4,0.1-0.9,0.2-1.4,0.5c-0.5,0.3-1,0.7-1.6,1.3
				c-0.6,0.6-1.1,1.4-1.8,2.3c-0.6,0.9-1.3,2.1-1.9,3.4c-0.2,0.4-0.4,0.9-0.7,1.3s-0.5,1-0.7,1.6s-0.4,1.2-0.6,1.9
				c-0.1,0.7-0.2,1.4-0.2,2.1c0,0.4,0.1,0.8,0.4,1c0.3,0.2,0.5,0.3,0.8,0.3c0.3,0,0.7-0.2,1.2-0.6c0.5-0.4,1-0.9,1.5-1.5
				c0.6-0.6,1.1-1.4,1.7-2.2c0.6-0.8,1.1-1.7,1.6-2.5c0.5-0.9,0.9-1.7,1.3-2.6s0.6-1.6,0.7-2.3c0-0.2,0.1-0.5,0.1-0.7
				c0-0.3,0.1-0.6,0.1-0.9s0.1-0.6,0.1-0.8C302.2,217.3,302.2,217.2,302.2,217z"/>
		</g>
		<path fill="#212121" d="M344.4,224.2c0,0.3,0,0.5-0.1,0.8c-0.1,0.3-0.2,0.5-0.3,0.8c-0.1,0.3-0.2,0.5-0.4,0.8
			c-0.1,0.3-0.3,0.5-0.4,0.7c-0.3,0.6-0.8,1.3-1.2,1.9c-0.5,0.7-1,1.3-1.5,1.9s-1.1,1.2-1.6,1.8c-0.6,0.5-1.1,1-1.6,1.5
			c-0.4,0.3-0.8,0.7-1.2,1c-0.4,0.3-0.8,0.5-1.2,0.8c-0.4,0.2-0.8,0.4-1.2,0.5c-0.4,0.1-0.9,0.2-1.4,0.2c-1,0-1.8-0.3-2.4-0.9
			c-0.3-0.3-0.6-0.7-0.8-1.2c-0.2-0.5-0.4-1-0.6-1.6c-0.2-0.6-0.3-1.2-0.4-1.8c-0.1-0.6-0.2-1.3-0.3-1.9c-0.1-0.8-0.2-1.5-0.3-2.1
			c-0.1-0.6-0.2-1.2-0.3-1.6c-0.1-0.4-0.3-0.8-0.5-1c-0.2-0.2-0.4-0.3-0.7-0.3c-0.2,0-0.4,0-0.6,0.1c-0.2,0.1-0.4,0.2-0.6,0.3
			s-0.5,0.4-0.7,0.7c-0.3,0.3-0.6,0.7-0.9,1.2c-0.4,0.5-0.8,1.1-1.2,1.9c-0.5,0.7-1,1.6-1.6,2.6c-0.3,0.5-0.6,1-1.1,1.6
			c-0.4,0.6-0.8,1.2-1.2,1.7c-0.4,0.5-0.8,1-1.2,1.4s-0.8,0.7-1.1,0.8c-1-0.3-1.6-1.8-1.6-4.6c0-0.7,0.1-1.9,0.2-3.4
			c0.1-0.7,0.2-1.4,0.3-2.2c0.1-0.8,0.2-1.5,0.4-2.3c0.1-0.8,0.3-1.5,0.5-2.2s0.4-1.4,0.7-2c0.1-0.3,0.2-0.5,0.4-0.7
			c0.1-0.2,0.3-0.3,0.4-0.4c0.1-0.1,0.3-0.1,0.4-0.1c0.1,0,0.3,0,0.5,0c0.2,0,0.4,0.2,0.5,0.5c0.1,0.3,0.2,0.7,0.2,1.3
			c0,0.3,0,0.7-0.1,0.9c0,0.3-0.1,0.6-0.2,0.9c-0.1,0.3-0.2,0.6-0.3,1s-0.2,0.8-0.3,1.2c-0.1,0.4-0.2,0.8-0.2,1.3
			c-0.1,0.5-0.2,0.9-0.3,1.4c-0.1,0.5-0.1,0.9-0.2,1.4c-0.1,0.5-0.1,0.9-0.1,1.2c0,0.3,0,0.5,0.1,0.8c0.3,0,0.9-0.6,1.6-1.8
			c0.4-0.6,0.8-1.2,1.3-1.9s1-1.4,1.5-2.3c0.4-0.6,0.8-1.2,1.2-1.7c0.4-0.5,0.8-1,1.2-1.4c0.4-0.4,0.9-0.7,1.4-0.9
			c0.5-0.2,1-0.3,1.6-0.3c0.6,0,1.1,0.2,1.5,0.5s0.7,0.8,1,1.3c0.3,0.6,0.4,1.2,0.6,2s0.2,1.6,0.3,2.6c0.1,0.8,0.1,1.6,0.2,2.3
			s0.2,1.5,0.4,2.1c0.2,0.6,0.5,1.1,0.8,1.5s0.9,0.6,1.5,0.6c0.5,0,1-0.1,1.6-0.4c0.6-0.3,1.1-0.7,1.8-1.2c0.6-0.5,1.3-1.1,1.9-1.8
			c0.7-0.7,1.3-1.4,2-2.2c0.3-0.3,0.6-0.7,0.9-1.2c0.3-0.5,0.6-0.9,1-1.4c0.3-0.4,0.6-0.8,0.9-1.1s0.5-0.5,0.7-0.5
			c0.1,0,0.2,0,0.3,0.1S344.4,224,344.4,224.2z"/>
		<path fill="#212121" d="M357.3,219.9c0,0.4-0.1,0.7-0.2,0.9s-0.3,0.4-0.5,0.5c-0.2,0.1-0.4,0.2-0.6,0.2c-0.2,0-0.4,0-0.6,0.1
			c-1,0.1-2,0.2-3.1,0.3s-2,0.2-2.9,0.3s-1.6,0.2-2.1,0.3c-0.6,0.1-0.8,0.2-0.8,0.2c-0.1,0.4-0.2,0.9-0.3,1.5
			c-0.1,0.6-0.3,1.3-0.4,2c-0.1,0.7-0.3,1.4-0.4,2.2c-0.1,0.7-0.3,1.4-0.4,2.1s-0.2,1.3-0.3,1.8c-0.1,0.5-0.1,1-0.1,1.3
			c0,0.3,0,0.7,0.1,1.1c0,0.4,0.1,0.8,0.3,1.2c0.1,0.4,0.3,0.7,0.6,1s0.6,0.4,1.1,0.4c0.3,0,0.6-0.1,0.9-0.3s0.8-0.4,1.2-0.8
			c0.4-0.3,0.9-0.7,1.3-1.2s0.9-0.9,1.4-1.5c0.2-0.3,0.5-0.5,0.7-0.8c0.3-0.2,0.6-0.4,0.9-0.4c0.4,0,0.7,0.2,0.7,0.7
			c0,0.3,0,0.5-0.1,0.7c-0.1,0.2-0.2,0.5-0.3,0.7c-0.1,0.2-0.3,0.5-0.4,0.7c-0.2,0.2-0.3,0.5-0.5,0.7c-0.1,0.2-0.3,0.4-0.5,0.7
			s-0.5,0.6-0.8,0.9c-0.3,0.3-0.7,0.7-1.1,1s-0.8,0.7-1.3,0.9c-0.4,0.3-0.9,0.5-1.4,0.7s-1,0.3-1.5,0.3c-0.7,0-1.3-0.1-1.8-0.4
			c-0.5-0.2-0.9-0.6-1.2-0.9s-0.5-0.8-0.7-1.3c-0.2-0.5-0.3-1-0.3-1.5c-0.1-0.5-0.1-1-0.1-1.5s0-0.9,0-1.3c0-0.4,0-1,0.1-1.6
			c0.1-0.6,0.2-1.2,0.3-1.9c0.1-0.7,0.2-1.4,0.4-2.1c0.1-0.7,0.3-1.4,0.4-2s0.2-1.2,0.3-1.7c0.1-0.5,0.1-0.9,0.1-1.3
			c0-0.2-0.1-0.3-0.2-0.3c-0.1,0-0.3,0-0.6,0c-0.3,0-0.5,0.1-0.8,0.1c-0.3,0-0.6,0-1,0c-0.2,0-0.4-0.1-0.6-0.2s-0.4-0.2-0.5-0.3
			c-0.1-0.1-0.3-0.3-0.4-0.6c-0.1-0.2-0.1-0.5-0.1-0.9c0-0.4,0.1-0.7,0.3-0.9s0.4-0.3,0.7-0.3h4.2c0.1,0,0.2-0.2,0.3-0.4
			s0.2-0.6,0.4-0.9c0.1-0.4,0.3-0.8,0.4-1.3s0.3-1,0.5-1.5c0.2-0.5,0.3-1.1,0.5-1.6s0.3-1,0.4-1.5c0.2-0.8,0.4-1.3,0.7-1.6
			c0.3-0.3,0.6-0.5,1-0.5c0.3,0,0.5,0.1,0.7,0.2c0.2,0.1,0.3,0.3,0.4,0.4s0.2,0.4,0.2,0.6c0,0.2,0.1,0.4,0.1,0.5
			c0,0.1,0,0.2-0.1,0.5c-0.1,0.3-0.2,0.6-0.3,1s-0.3,0.9-0.4,1.4c-0.2,0.5-0.3,1-0.5,1.5c-0.2,0.5-0.3,1-0.5,1.5
			c-0.1,0.5-0.3,0.9-0.4,1.2c1.1-0.1,2-0.2,2.8-0.3c0.8-0.1,1.4-0.2,2-0.2c0.5-0.1,1-0.1,1.4-0.2c0.4,0,0.8-0.1,1.1-0.1
			c0.5,0,0.9,0,1.3,0.1c0.3,0.1,0.6,0.1,0.7,0.2s0.3,0.2,0.3,0.4C357.3,219.5,357.3,219.7,357.3,219.9z"/>
	</g>
</g>
</svg>
